<svg width="160" height="41" viewBox="0 0 160 41" fill="none" xmlns="http://www.w3.org/2000/svg">
<g clip-path="url(#clip0)">
<path d="M151.579 0H8.42105C3.77023 0 0 3.77024 0 8.42106V32C0 36.6508 3.77023 40.4211 8.42105 40.4211H151.579C156.23 40.4211 160 36.6508 160 32V8.42106C160 3.77024 156.23 0 151.579 0Z" fill="black"/>
<path d="M25.017 20.6196L25.017 20.6196L25.017 20.6293C25.0191 22.6294 26.099 24.4536 27.8087 25.4269C27.4969 26.2672 27.0772 27.0644 26.5597 27.7982L26.5547 27.8053L26.5499 27.8125C26.0935 28.4952 25.6715 29.0976 25.2008 29.5371C24.7443 29.9634 24.2886 30.1923 23.7615 30.2008L23.7567 30.2009C23.1923 30.2139 22.8286 30.0591 22.3145 29.8403L22.3114 29.8389C21.7765 29.6112 21.1278 29.3407 20.1439 29.3407C19.1622 29.3407 18.5083 29.5899 17.9584 29.8195C17.9248 29.8336 17.8918 29.8474 17.8594 29.861C17.3745 30.0644 17.0198 30.2132 16.4995 30.235C16.0509 30.251 15.5929 30.0303 15.0852 29.5539C14.5767 29.0766 14.108 28.4279 13.6353 27.7521C12.7556 26.4659 11.9622 24.6329 11.6256 22.7244C11.2878 20.8093 11.4237 18.9041 12.29 17.4041L12.2901 17.4042L12.2955 17.3945C13.0937 15.9601 14.5855 15.0495 16.2259 14.995C16.7891 14.9844 17.3642 15.1755 17.9824 15.4197C18.0559 15.4487 18.1316 15.4791 18.2085 15.51C18.4348 15.6009 18.671 15.6958 18.8883 15.7704C19.1792 15.8702 19.516 15.9635 19.8541 15.9635C20.2026 15.9635 20.568 15.8488 20.8737 15.7385C21.0407 15.6782 21.2464 15.5968 21.4507 15.516C21.604 15.4553 21.7564 15.395 21.8911 15.3442C22.6072 15.0738 23.312 14.8733 23.9882 14.9443L24.0136 14.9469L24.0391 14.9477C25.2011 14.9841 26.2922 15.4756 27.0864 16.3C25.8056 17.3572 25.0388 18.9328 25.017 20.6196ZM22.4178 12.0084L22.4177 12.0083L22.4101 12.0177C21.8977 12.655 21.181 13.0832 20.3934 13.2391C20.4858 12.4377 20.8199 11.677 21.3597 11.0625L21.3599 11.0623C21.8991 10.4482 22.5977 10.004 23.3709 9.77385C23.2792 10.5902 22.9509 11.3684 22.4178 12.0084Z" fill="white" stroke="white" stroke-width="1.3913"/>
<path d="M43.5005 28.4363L47.3676 18.9642H48.4614V30.1211H48.0733V21.5806V20.8849H47.3777H47.3162H46.8508L46.6732 21.315L43.0765 30.0251H42.5668L38.9602 21.3144L38.7824 20.8849H38.3175H38.2569H37.5612V21.5806V30.1211H37.1824V18.9642H38.2681L42.1427 28.4368L42.3195 28.869H42.7865H42.8564H43.3238L43.5005 28.4363Z" fill="white" stroke="white" stroke-width="1.3913"/>
<mask id="path-4-inside-1" fill="white">
<path d="M50.6523 28.2167C50.6523 26.617 51.8753 25.6509 54.0457 25.5206L56.545 25.3815V24.6857C56.545 23.6683 55.8763 23.094 54.739 23.094C53.8674 22.9778 53.0457 23.5297 52.8217 24.3818H51.0688C51.121 22.7288 52.6572 21.5555 54.7912 21.5555C56.9694 21.5555 58.4101 22.7466 58.4101 24.5466V30.817H56.6139V29.3121H56.5706C55.9847 30.3515 54.8803 30.9884 53.6892 30.974C52.9126 31.0501 52.1399 30.7941 51.5616 30.2691C50.9833 29.744 50.6531 28.9987 50.6523 28.2167ZM56.545 27.3907L56.545 26.6861L54.2968 26.8253C53.1771 26.8953 52.544 27.3818 52.544 28.1644C52.544 28.9648 53.2037 29.4868 54.2101 29.4868C54.799 29.5268 55.379 29.3268 55.8186 28.9322C56.2583 28.5375 56.5202 27.9817 56.545 27.3907H56.545ZM66.2792 24.8161C66.1093 23.7784 65.1735 23.0448 64.1276 23.1295C62.6869 23.1295 61.7326 24.3384 61.7326 26.243C61.7326 28.191 62.6957 29.3644 64.1443 29.3644C65.1774 29.4681 66.1126 28.7483 66.2792 27.7213H68.0842C67.8507 29.6886 66.0962 31.1116 64.1276 30.9305C61.5239 30.9305 59.8232 29.1473 59.8232 26.243C59.8232 23.399 61.5239 21.5555 64.1099 21.5555C66.0931 21.387 67.8489 22.8335 68.0675 24.8161H66.2792ZM80.2616 27.4253H75.4886L74.3423 30.8171H72.3206L76.8416 18.2683H78.9421L83.4631 30.8171H81.4069L80.2616 27.4253ZM75.9829 25.8601H79.7664L77.9013 20.3555H77.8491L75.9829 25.8601ZM93.2268 26.243C93.2268 29.0861 91.7083 30.9128 89.4168 30.9128C88.2324 30.9749 87.1167 30.3532 86.5443 29.3121H86.501V33.8437H84.627V21.668H86.4409V23.1897H86.4754C87.0732 22.1552 88.1901 21.5338 89.3824 21.5723C91.6995 21.5723 93.2268 23.4078 93.2268 26.243ZM91.3007 26.243C91.3007 24.3907 90.3454 23.173 88.888 23.173C87.4562 23.173 86.4931 24.4164 86.4931 26.243C86.4931 28.0865 87.4562 29.321 88.888 29.321C90.3455 29.321 91.3007 28.1121 91.3007 26.243ZM103.275 26.243C103.275 29.0861 101.757 30.9128 99.4652 30.9128C98.2807 30.9749 97.165 30.3532 96.5927 29.3121H96.5493V33.8437H94.6754V21.668H96.4893V23.1897H96.5237C97.1215 22.1552 98.2384 21.5338 99.4307 21.5723C101.748 21.5723 103.275 23.4078 103.275 26.243ZM101.349 26.243C101.349 24.3907 100.394 23.173 98.9364 23.173C97.5046 23.173 96.5415 24.4164 96.5415 26.243C96.5415 28.0865 97.5046 29.321 98.9364 29.321C100.394 29.321 101.349 28.1121 101.349 26.243H101.349ZM109.916 27.3207C110.055 28.5651 111.261 29.3821 112.91 29.3821C114.489 29.3821 115.626 28.565 115.626 27.443C115.626 26.469 114.94 25.8858 113.318 25.4861L111.695 25.0943C109.395 24.5377 108.328 23.4601 108.328 21.7114C108.328 19.5463 110.211 18.0591 112.884 18.0591C115.53 18.0591 117.344 19.5463 117.405 21.7114H115.514C115.4 20.4591 114.367 19.7032 112.858 19.7032C111.348 19.7032 110.315 20.468 110.315 21.5811C110.315 22.4683 110.975 22.9903 112.589 23.39L113.969 23.7295C116.538 24.3383 117.605 25.3726 117.605 27.2081C117.605 29.5558 115.739 31.0262 112.771 31.0262C109.994 31.0262 108.119 29.5903 107.998 27.3206L109.916 27.3207ZM121.65 19.5029V21.668H123.386V23.1552H121.65V28.1989C121.65 28.9825 121.997 29.3476 122.76 29.3476C122.966 29.344 123.172 29.3295 123.377 29.3042V30.7825C123.034 30.8467 122.685 30.8758 122.336 30.8693C120.488 30.8693 119.767 30.1736 119.767 28.3992V23.1552H118.439V21.668H119.767V19.5029H121.65ZM124.39 26.243C124.39 23.3644 126.082 21.5555 128.72 21.5555C131.367 21.5555 133.051 23.3644 133.051 26.243C133.051 29.1296 131.376 30.9305 128.72 30.9305C126.065 30.9305 124.39 29.1295 124.39 26.243ZM131.142 26.243C131.142 24.2684 130.239 23.1029 128.72 23.1029C127.202 23.1029 126.299 24.2772 126.299 26.243C126.299 28.2256 127.202 29.3822 128.72 29.3822C130.239 29.3822 131.142 28.2256 131.142 26.243H131.142ZM134.597 21.668H136.384V23.2252H136.428C136.677 22.2228 137.594 21.5329 138.624 21.5723C138.84 21.5715 139.055 21.595 139.266 21.6424V23.3989C138.993 23.3154 138.709 23.2771 138.424 23.2854C137.873 23.2631 137.34 23.4831 136.964 23.8878C136.589 24.2925 136.409 24.8414 136.471 25.3904V30.817H134.597V21.668ZM147.905 28.1299C147.653 29.7907 146.039 30.9305 143.974 30.9305C141.318 30.9305 139.669 29.1473 139.669 26.2864C139.669 23.4167 141.327 21.5555 143.895 21.5555C146.421 21.5555 148.009 23.2943 148.009 26.0684V26.7118H141.561V26.8253C141.501 27.5064 141.736 28.1806 142.206 28.6764C142.675 29.1722 143.335 29.4419 144.017 29.4167C144.927 29.5021 145.784 28.9788 146.125 28.1299L147.905 28.1299ZM141.57 25.3993L146.134 25.3993C146.168 24.7872 145.946 24.1887 145.521 23.7479C145.096 23.3072 144.507 23.0641 143.895 23.0772C143.279 23.0735 142.686 23.3168 142.25 23.7528C141.813 24.1888 141.568 24.7816 141.57 25.3993Z"/>
</mask>
<path d="M50.6523 28.2167C50.6523 26.617 51.8753 25.6509 54.0457 25.5206L56.545 25.3815V24.6857C56.545 23.6683 55.8763 23.094 54.739 23.094C53.8674 22.9778 53.0457 23.5297 52.8217 24.3818H51.0688C51.121 22.7288 52.6572 21.5555 54.7912 21.5555C56.9694 21.5555 58.4101 22.7466 58.4101 24.5466V30.817H56.6139V29.3121H56.5706C55.9847 30.3515 54.8803 30.9884 53.6892 30.974C52.9126 31.0501 52.1399 30.7941 51.5616 30.2691C50.9833 29.744 50.6531 28.9987 50.6523 28.2167ZM56.545 27.3907L56.545 26.6861L54.2968 26.8253C53.1771 26.8953 52.544 27.3818 52.544 28.1644C52.544 28.9648 53.2037 29.4868 54.2101 29.4868C54.799 29.5268 55.379 29.3268 55.8186 28.9322C56.2583 28.5375 56.5202 27.9817 56.545 27.3907H56.545ZM66.2792 24.8161C66.1093 23.7784 65.1735 23.0448 64.1276 23.1295C62.6869 23.1295 61.7326 24.3384 61.7326 26.243C61.7326 28.191 62.6957 29.3644 64.1443 29.3644C65.1774 29.4681 66.1126 28.7483 66.2792 27.7213H68.0842C67.8507 29.6886 66.0962 31.1116 64.1276 30.9305C61.5239 30.9305 59.8232 29.1473 59.8232 26.243C59.8232 23.399 61.5239 21.5555 64.1099 21.5555C66.0931 21.387 67.8489 22.8335 68.0675 24.8161H66.2792ZM80.2616 27.4253H75.4886L74.3423 30.8171H72.3206L76.8416 18.2683H78.9421L83.4631 30.8171H81.4069L80.2616 27.4253ZM75.9829 25.8601H79.7664L77.9013 20.3555H77.8491L75.9829 25.8601ZM93.2268 26.243C93.2268 29.0861 91.7083 30.9128 89.4168 30.9128C88.2324 30.9749 87.1167 30.3532 86.5443 29.3121H86.501V33.8437H84.627V21.668H86.4409V23.1897H86.4754C87.0732 22.1552 88.1901 21.5338 89.3824 21.5723C91.6995 21.5723 93.2268 23.4078 93.2268 26.243ZM91.3007 26.243C91.3007 24.3907 90.3454 23.173 88.888 23.173C87.4562 23.173 86.4931 24.4164 86.4931 26.243C86.4931 28.0865 87.4562 29.321 88.888 29.321C90.3455 29.321 91.3007 28.1121 91.3007 26.243ZM103.275 26.243C103.275 29.0861 101.757 30.9128 99.4652 30.9128C98.2807 30.9749 97.165 30.3532 96.5927 29.3121H96.5493V33.8437H94.6754V21.668H96.4893V23.1897H96.5237C97.1215 22.1552 98.2384 21.5338 99.4307 21.5723C101.748 21.5723 103.275 23.4078 103.275 26.243ZM101.349 26.243C101.349 24.3907 100.394 23.173 98.9364 23.173C97.5046 23.173 96.5415 24.4164 96.5415 26.243C96.5415 28.0865 97.5046 29.321 98.9364 29.321C100.394 29.321 101.349 28.1121 101.349 26.243H101.349ZM109.916 27.3207C110.055 28.5651 111.261 29.3821 112.91 29.3821C114.489 29.3821 115.626 28.565 115.626 27.443C115.626 26.469 114.94 25.8858 113.318 25.4861L111.695 25.0943C109.395 24.5377 108.328 23.4601 108.328 21.7114C108.328 19.5463 110.211 18.0591 112.884 18.0591C115.53 18.0591 117.344 19.5463 117.405 21.7114H115.514C115.4 20.4591 114.367 19.7032 112.858 19.7032C111.348 19.7032 110.315 20.468 110.315 21.5811C110.315 22.4683 110.975 22.9903 112.589 23.39L113.969 23.7295C116.538 24.3383 117.605 25.3726 117.605 27.2081C117.605 29.5558 115.739 31.0262 112.771 31.0262C109.994 31.0262 108.119 29.5903 107.998 27.3206L109.916 27.3207ZM121.65 19.5029V21.668H123.386V23.1552H121.65V28.1989C121.65 28.9825 121.997 29.3476 122.76 29.3476C122.966 29.344 123.172 29.3295 123.377 29.3042V30.7825C123.034 30.8467 122.685 30.8758 122.336 30.8693C120.488 30.8693 119.767 30.1736 119.767 28.3992V23.1552H118.439V21.668H119.767V19.5029H121.65ZM124.39 26.243C124.39 23.3644 126.082 21.5555 128.72 21.5555C131.367 21.5555 133.051 23.3644 133.051 26.243C133.051 29.1296 131.376 30.9305 128.72 30.9305C126.065 30.9305 124.39 29.1295 124.39 26.243ZM131.142 26.243C131.142 24.2684 130.239 23.1029 128.72 23.1029C127.202 23.1029 126.299 24.2772 126.299 26.243C126.299 28.2256 127.202 29.3822 128.72 29.3822C130.239 29.3822 131.142 28.2256 131.142 26.243H131.142ZM134.597 21.668H136.384V23.2252H136.428C136.677 22.2228 137.594 21.5329 138.624 21.5723C138.84 21.5715 139.055 21.595 139.266 21.6424V23.3989C138.993 23.3154 138.709 23.2771 138.424 23.2854C137.873 23.2631 137.34 23.4831 136.964 23.8878C136.589 24.2925 136.409 24.8414 136.471 25.3904V30.817H134.597V21.668ZM147.905 28.1299C147.653 29.7907 146.039 30.9305 143.974 30.9305C141.318 30.9305 139.669 29.1473 139.669 26.2864C139.669 23.4167 141.327 21.5555 143.895 21.5555C146.421 21.5555 148.009 23.2943 148.009 26.0684V26.7118H141.561V26.8253C141.501 27.5064 141.736 28.1806 142.206 28.6764C142.675 29.1722 143.335 29.4419 144.017 29.4167C144.927 29.5021 145.784 28.9788 146.125 28.1299L147.905 28.1299ZM141.57 25.3993L146.134 25.3993C146.168 24.7872 145.946 24.1887 145.521 23.7479C145.096 23.3072 144.507 23.0641 143.895 23.0772C143.279 23.0735 142.686 23.3168 142.25 23.7528C141.813 24.1888 141.568 24.7816 141.57 25.3993Z" fill="white" stroke="white" stroke-width="2.78261" mask="url(#path-4-inside-1)"/>
<mask id="path-5-inside-2" fill="white">
<path d="M38.9846 8.82301C39.7802 8.7658 40.5594 9.06912 41.1078 9.64949C41.6563 10.2299 41.9161 11.0261 41.8158 11.8191C41.8158 13.7454 40.7769 14.8527 38.9846 14.8527H36.8113V8.82301H38.9846ZM37.7458 13.9999H38.8802C39.4488 14.034 40.0024 13.8095 40.3873 13.3888C40.7722 12.9681 40.9475 12.396 40.8645 11.8313C40.9415 11.269 40.7637 10.7016 40.3797 10.2844C39.9957 9.86711 39.4458 9.64365 38.8802 9.6751H37.7458V13.9999ZM42.8714 12.5754C42.7936 11.7598 43.1838 10.9705 43.8785 10.5385C44.5732 10.1065 45.4523 10.1065 46.147 10.5385C46.8417 10.9705 47.2319 11.7598 47.1541 12.5754C47.2334 13.3919 46.8435 14.1828 46.1482 14.6157C45.4529 15.0487 44.5726 15.0487 43.8773 14.6157C43.182 14.1828 42.7921 13.3919 42.8714 12.5754ZM46.2323 12.5754C46.2323 11.5891 45.7902 11.0123 45.0142 11.0123C44.2353 11.0123 43.7971 11.5891 43.7971 12.5755C43.7971 13.5697 44.2353 14.1421 45.0142 14.1421C45.7902 14.142 46.2324 13.5657 46.2324 12.5754H46.2323Z"/>
</mask>
<path d="M38.9846 8.82301C39.7802 8.7658 40.5594 9.06912 41.1078 9.64949C41.6563 10.2299 41.9161 11.0261 41.8158 11.8191C41.8158 13.7454 40.7769 14.8527 38.9846 14.8527H36.8113V8.82301H38.9846ZM37.7458 13.9999H38.8802C39.4488 14.034 40.0024 13.8095 40.3873 13.3888C40.7722 12.9681 40.9475 12.396 40.8645 11.8313C40.9415 11.269 40.7637 10.7016 40.3797 10.2844C39.9957 9.86711 39.4458 9.64365 38.8802 9.6751H37.7458V13.9999ZM42.8714 12.5754C42.7936 11.7598 43.1838 10.9705 43.8785 10.5385C44.5732 10.1065 45.4523 10.1065 46.147 10.5385C46.8417 10.9705 47.2319 11.7598 47.1541 12.5754C47.2334 13.3919 46.8435 14.1828 46.1482 14.6157C45.4529 15.0487 44.5726 15.0487 43.8773 14.6157C43.182 14.1828 42.7921 13.3919 42.8714 12.5754ZM46.2323 12.5754C46.2323 11.5891 45.7902 11.0123 45.0142 11.0123C44.2353 11.0123 43.7971 11.5891 43.7971 12.5755C43.7971 13.5697 44.2353 14.1421 45.0142 14.1421C45.7902 14.142 46.2324 13.5657 46.2324 12.5754H46.2323Z" fill="white"/>
<path d="M38.9846 8.82301V10.2143H39.0346L39.0844 10.2107L38.9846 8.82301ZM41.8158 11.8191L40.4355 11.6445L40.4245 11.7314V11.8191H41.8158ZM36.8113 14.8527H35.42V16.244H36.8113V14.8527ZM36.8113 8.82301V7.43171H35.42V8.82301H36.8113ZM37.7458 13.9999H36.3545V15.3912H37.7458V13.9999ZM38.8802 13.9999L38.9634 12.6111L38.9219 12.6086H38.8802V13.9999ZM40.8645 11.8313L39.486 11.6426L39.4593 11.8383L39.488 12.0337L40.8645 11.8313ZM38.8802 9.6751V11.0664H38.9189L38.9575 11.0643L38.8802 9.6751ZM37.7458 9.6751V8.28379H36.3545V9.6751H37.7458ZM42.8714 12.5754L44.2562 12.71L44.2692 12.5766L44.2564 12.4432L42.8714 12.5754ZM43.8785 10.5385L44.6132 11.72L43.8785 10.5385ZM46.147 10.5385L45.4122 11.72L46.147 10.5385ZM47.1541 12.5754L45.7691 12.4432L45.7563 12.5766L45.7693 12.71L47.1541 12.5754ZM46.1482 14.6157L45.4128 13.4347L46.1482 14.6157ZM46.2323 12.5754H44.841V13.9667H46.2323V12.5754ZM45.0142 14.1421V15.5334H45.0142L45.0142 14.1421ZM46.2324 12.5754H47.6237V11.1841H46.2324V12.5754ZM39.0844 10.2107C39.463 10.1835 39.8345 10.3278 40.0966 10.6051L42.1191 8.69391C41.2843 7.81049 40.0973 7.3481 38.8848 7.43529L39.0844 10.2107ZM40.0966 10.6051C40.3588 10.8826 40.4836 11.264 40.4355 11.6445L43.1961 11.9937C43.3486 10.7882 42.9537 9.57718 42.1191 8.69391L40.0966 10.6051ZM40.4245 11.8191C40.4245 12.5419 40.2316 12.9201 40.0558 13.1082C39.8924 13.2831 39.5881 13.4614 38.9846 13.4614V16.244C40.1734 16.244 41.2847 15.8686 42.0888 15.0082C42.8805 14.1611 43.2071 13.0226 43.2071 11.8191H40.4245ZM38.9846 13.4614H36.8113V16.244H38.9846V13.4614ZM38.2026 14.8527V8.82301H35.42V14.8527H38.2026ZM36.8113 10.2143H38.9846V7.43171H36.8113V10.2143ZM37.7458 15.3912H38.8802V12.6086H37.7458V15.3912ZM38.797 15.3888C39.7849 15.4479 40.746 15.0578 41.4138 14.328L39.3608 12.4496C39.2587 12.5612 39.1127 12.6201 38.9634 12.6111L38.797 15.3888ZM41.4138 14.328C42.0813 13.5984 42.3848 12.607 42.241 11.6289L39.488 12.0337C39.5102 12.1851 39.4631 12.3378 39.3608 12.4496L41.4138 14.328ZM42.2429 12.0201C42.3761 11.0472 42.0686 10.0651 41.4035 9.34225L39.3559 11.2265C39.4587 11.3382 39.5068 11.4908 39.486 11.6426L42.2429 12.0201ZM41.4035 9.34225C40.7382 8.61926 39.7844 8.23136 38.803 8.28594L38.9575 11.0643C39.1071 11.0559 39.2533 11.115 39.3559 11.2265L41.4035 9.34225ZM38.8802 8.28379H37.7458V11.0664H38.8802V8.28379ZM36.3545 9.6751V13.9999H39.1371V9.6751H36.3545ZM44.2564 12.4432C44.2287 12.1524 44.368 11.8725 44.6132 11.72L43.1438 9.35699C41.9996 10.0685 41.3584 11.3672 41.4864 12.7077L44.2564 12.4432ZM44.6132 11.72C44.8581 11.5677 45.1674 11.5677 45.4122 11.72L46.8817 9.35699C45.7371 8.64522 44.2884 8.64522 43.1438 9.35699L44.6132 11.72ZM45.4122 11.72C45.6575 11.8725 45.7968 12.1524 45.7691 12.4432L48.5391 12.7077C48.667 11.3672 48.0258 10.0685 46.8817 9.35699L45.4122 11.72ZM45.7693 12.71C45.7976 13.0012 45.6584 13.2818 45.4128 13.4347L46.8836 15.7968C48.0287 15.0838 48.6692 13.7827 48.5389 12.4409L45.7693 12.71ZM45.4128 13.4347C45.1677 13.5873 44.8578 13.5873 44.6127 13.4347L43.1419 15.7968C44.2874 16.5101 45.7381 16.5101 46.8836 15.7968L45.4128 13.4347ZM44.6127 13.4347C44.3671 13.2818 44.2279 13.0012 44.2562 12.71L41.4866 12.4409C41.3562 13.7827 41.9968 15.0838 43.1419 15.7968L44.6127 13.4347ZM47.6237 12.5754C47.6237 11.8987 47.475 11.1659 47.0135 10.5711C46.5139 9.92712 45.7833 9.62098 45.0142 9.62098V12.4036C45.0344 12.4036 45.0046 12.4068 44.9489 12.3811C44.8901 12.3539 44.8432 12.3132 44.815 12.2768C44.7903 12.2449 44.7971 12.239 44.8106 12.2876C44.8244 12.3373 44.841 12.43 44.841 12.5754H47.6237ZM45.0142 9.62098C44.2448 9.62098 43.513 9.92641 43.0131 10.5727C42.5523 11.1684 42.4058 11.9013 42.4058 12.5755H45.1884C45.1884 12.429 45.205 12.3357 45.2188 12.2855C45.2324 12.2365 45.2392 12.2427 45.2141 12.2752C45.1853 12.3124 45.1378 12.3537 45.0783 12.3812C45.0222 12.407 44.9926 12.4036 45.0142 12.4036V9.62098ZM42.4058 12.5755C42.4058 13.2513 42.5514 13.9863 43.0133 14.5831C43.515 15.2314 44.2482 15.5334 45.0142 15.5334V12.7508C44.9911 12.7508 45.0201 12.747 45.0763 12.7728C45.1361 12.8003 45.1844 12.842 45.2139 12.8801C45.2397 12.9134 45.2328 12.9201 45.2192 12.8705C45.2052 12.8196 45.1884 12.7248 45.1884 12.5755H42.4058ZM45.0142 15.5334C45.7831 15.5334 46.5142 15.2275 47.0141 14.5822C47.4755 13.9867 47.6237 13.2531 47.6237 12.5754H44.8411C44.8411 12.7224 44.8244 12.816 44.8104 12.8664C44.7967 12.9157 44.7897 12.91 44.8145 12.878C44.8427 12.8415 44.8897 12.8006 44.9488 12.7733C45.0046 12.7475 45.0346 12.7508 45.0142 12.7508L45.0142 15.5334ZM46.2324 11.1841H46.2323V13.9667H46.2324V11.1841Z" fill="white" mask="url(#path-5-inside-2)"/>
<mask id="path-7-inside-3" fill="white">
<path d="M52.8463 14.853H51.9166L50.9794 11.5006H50.9078L49.9739 14.853H49.0535L47.8004 10.3022H48.7099L49.5234 13.7743H49.5907L50.5246 10.3022H51.3836L52.3175 13.7743H52.3882L53.1975 10.3022H54.0943L52.8463 14.853Z"/>
</mask>
<path d="M52.8463 14.853H51.9166L50.9794 11.5006H50.9078L49.9739 14.853H49.0535L47.8004 10.3022H48.7099L49.5234 13.7743H49.5907L50.5246 10.3022H51.3836L52.3175 13.7743H52.3882L53.1975 10.3022H54.0943L52.8463 14.853Z" fill="white"/>
<path d="M52.8463 14.853V16.2443H53.9074L54.1881 15.221L52.8463 14.853ZM51.9166 14.853L50.5767 15.2276L50.8609 16.2443H51.9166V14.853ZM50.9794 11.5006L52.3193 11.126L52.035 10.1093H50.9794V11.5006ZM50.9078 11.5006V10.1093H49.8511L49.5675 11.1272L50.9078 11.5006ZM49.9739 14.853V16.2443H51.0306L51.3142 15.2264L49.9739 14.853ZM49.0535 14.853L47.7121 15.2223L47.9935 16.2443H49.0535V14.853ZM47.8004 10.3022V8.91094H45.9742L46.459 10.6716L47.8004 10.3022ZM48.7099 10.3022L50.0645 9.98487L49.8129 8.91094H48.7099V10.3022ZM49.5234 13.7743L48.1687 14.0916L48.4204 15.1656H49.5234V13.7743ZM49.5907 13.7743V15.1656H50.6573L50.9343 14.1356L49.5907 13.7743ZM50.5246 10.3022V8.91094H49.4581L49.1811 9.94086L50.5246 10.3022ZM51.3836 10.3022L52.7271 9.94086L52.4501 8.91094H51.3836V10.3022ZM52.3175 13.7743L50.9739 14.1356L51.2509 15.1656H52.3175V13.7743ZM52.3882 13.7743V15.1656H53.4925L53.7432 14.0901L52.3882 13.7743ZM53.1975 10.3022V8.91094H52.0931L51.8425 9.98642L53.1975 10.3022ZM54.0943 10.3022L55.4361 10.6702L55.9185 8.91094H54.0943V10.3022ZM52.8463 13.4617H51.9166V16.2443H52.8463V13.4617ZM53.2565 14.4784L52.3193 11.126L49.6394 11.8752L50.5767 15.2276L53.2565 14.4784ZM50.9794 10.1093H50.9078V12.8919H50.9794V10.1093ZM49.5675 11.1272L48.6336 14.4796L51.3142 15.2264L52.248 11.8739L49.5675 11.1272ZM49.9739 13.4617H49.0535V16.2443H49.9739V13.4617ZM50.3948 14.4836L49.1418 9.9329L46.459 10.6716L47.7121 15.2223L50.3948 14.4836ZM47.8004 11.6936H48.7099V8.91094H47.8004V11.6936ZM47.3553 10.6196L48.1687 14.0916L50.878 13.4569L50.0645 9.98487L47.3553 10.6196ZM49.5234 15.1656H49.5907V12.383H49.5234V15.1656ZM50.9343 14.1356L51.8682 10.6636L49.1811 9.94086L48.2472 13.4129L50.9343 14.1356ZM50.5246 11.6936H51.3836V8.91094H50.5246V11.6936ZM50.04 10.6636L50.9739 14.1356L53.661 13.4129L52.7271 9.94086L50.04 10.6636ZM52.3175 15.1656H52.3882V12.383H52.3175V15.1656ZM53.7432 14.0901L54.5524 10.6181L51.8425 9.98642L51.0332 13.4584L53.7432 14.0901ZM53.1975 11.6936H54.0943V8.91094H53.1975V11.6936ZM52.7525 9.93428L51.5045 14.485L54.1881 15.221L55.4361 10.6702L52.7525 9.93428Z" fill="white" mask="url(#path-7-inside-3)"/>
<mask id="path-9-inside-4" fill="white">
<path d="M55.1463 10.3021H56.0089V11.0249H56.0759C56.3087 10.4927 56.8529 10.1671 57.4309 10.2142C57.8784 10.1805 58.317 10.3526 58.6227 10.6818C58.9285 11.011 59.0682 11.4617 59.0025 11.9066V14.8523H58.1064V12.1322C58.1064 11.4009 57.7893 11.0373 57.1266 11.0373C56.823 11.0231 56.5285 11.1425 56.3201 11.3641C56.1117 11.5858 56.0102 11.8876 56.0424 12.1904V14.8524H55.1463L55.1463 10.3021Z"/>
</mask>
<path d="M55.1463 10.3021H56.0089V11.0249H56.0759C56.3087 10.4927 56.8529 10.1671 57.4309 10.2142C57.8784 10.1805 58.317 10.3526 58.6227 10.6818C58.9285 11.011 59.0682 11.4617 59.0025 11.9066V14.8523H58.1064V12.1322C58.1064 11.4009 57.7893 11.0373 57.1266 11.0373C56.823 11.0231 56.5285 11.1425 56.3201 11.3641C56.1117 11.5858 56.0102 11.8876 56.0424 12.1904V14.8524H55.1463L55.1463 10.3021Z" fill="white"/>
<path d="M55.1463 10.3021V8.91075H53.755L53.755 10.3021L55.1463 10.3021ZM56.0089 10.3021H57.4002V8.91075H56.0089V10.3021ZM56.0089 11.0249H54.6176V12.4162H56.0089V11.0249ZM56.0759 11.0249V12.4162H56.9858L57.3505 11.5826L56.0759 11.0249ZM57.4309 10.2142L57.3179 11.6009L57.4267 11.6098L57.5354 11.6016L57.4309 10.2142ZM59.0025 11.9066L57.6262 11.7034L57.6112 11.8045V11.9066H59.0025ZM59.0025 14.8523V16.2436H60.3938V14.8523H59.0025ZM58.1064 14.8523H56.7151V16.2436H58.1064V14.8523ZM57.1266 11.0373L57.0617 12.427L57.0941 12.4286H57.1266V11.0373ZM56.0424 12.1904H57.4337V12.1167L57.4259 12.0435L56.0424 12.1904ZM56.0424 14.8524V16.2437H57.4337V14.8524H56.0424ZM55.1463 14.8524L53.755 14.8524L53.755 16.2437H55.1463V14.8524ZM55.1463 11.6934H56.0089V8.91075H55.1463V11.6934ZM54.6176 10.3021V11.0249H57.4002V10.3021H54.6176ZM56.0089 12.4162H56.0759V9.63361H56.0089V12.4162ZM57.3505 11.5826C57.3458 11.5933 57.3334 11.6022 57.3179 11.6009L57.5439 8.82751C56.3723 8.73208 55.2717 9.39208 54.8012 10.4672L57.3505 11.5826ZM57.5354 11.6016C57.5602 11.5997 57.5852 11.6091 57.6032 11.6285L59.6422 9.73504C59.0488 9.09595 58.1967 8.76128 57.3264 8.82685L57.5354 11.6016ZM57.6032 11.6285C57.6214 11.6481 57.6303 11.6757 57.6262 11.7034L60.3789 12.1099C60.5062 11.2478 60.2356 10.374 59.6422 9.73504L57.6032 11.6285ZM57.6112 11.9066V14.8523H60.3938V11.9066H57.6112ZM59.0025 13.461H58.1064V16.2436H59.0025V13.461ZM59.4977 14.8523V12.1322H56.7151V14.8523H59.4977ZM59.4977 12.1322C59.4977 11.5977 59.3862 10.9275 58.9048 10.386C58.3945 9.81214 57.7082 9.64595 57.1266 9.64595V12.4286C57.169 12.4286 57.1426 12.4348 57.0762 12.4102C57.0008 12.3823 56.9065 12.3263 56.8253 12.235C56.6681 12.0582 56.7151 11.9354 56.7151 12.1322H59.4977ZM57.1915 9.64746C56.4813 9.61432 55.7929 9.89368 55.3064 10.4111L57.3337 12.3172C57.264 12.3913 57.1647 12.4319 57.0617 12.427L57.1915 9.64746ZM55.3064 10.4111C54.8201 10.9283 54.584 11.6319 54.6589 12.3373L57.4259 12.0435C57.4365 12.1432 57.4032 12.2432 57.3337 12.3172L55.3064 10.4111ZM54.6511 12.1904V14.8524H57.4337V12.1904H54.6511ZM56.0424 13.4611H55.1463V16.2437H56.0424V13.4611ZM56.5376 14.8524L56.5376 10.3021L53.755 10.3021L53.755 14.8524L56.5376 14.8524Z" fill="white" mask="url(#path-9-inside-4)"/>
<mask id="path-11-inside-5" fill="white">
<path d="M60.4303 8.52539H61.3263V14.853H60.4303V8.52539Z"/>
</mask>
<path d="M60.4303 8.52539H61.3263V14.853H60.4303V8.52539Z" fill="white"/>
<path d="M60.4303 8.52539V7.13409H59.039V8.52539H60.4303ZM61.3263 8.52539H62.7176V7.13409H61.3263V8.52539ZM61.3263 14.853V16.2443H62.7176V14.853H61.3263ZM60.4303 14.853H59.039V16.2443H60.4303V14.853ZM60.4303 9.91669H61.3263V7.13409H60.4303V9.91669ZM59.935 8.52539V14.853H62.7176V8.52539H59.935ZM61.3263 13.4617H60.4303V16.2443H61.3263V13.4617ZM61.8216 14.853V8.52539H59.039V14.853H61.8216Z" fill="white" mask="url(#path-11-inside-5)"/>
<mask id="path-13-inside-6" fill="white">
<path d="M62.5723 12.5754C62.4944 11.7598 62.8847 10.9705 63.5794 10.5384C64.2741 10.1064 65.1532 10.1064 65.8479 10.5384C66.5426 10.9705 66.9328 11.7598 66.855 12.5754C66.9343 13.3919 66.5444 14.1828 65.8491 14.6157C65.1538 15.0486 64.2735 15.0486 63.5782 14.6157C62.8829 14.1828 62.493 13.3919 62.5723 12.5754ZM65.9332 12.5754C65.9332 11.5891 65.4911 11.0122 64.7151 11.0122C63.9362 11.0122 63.498 11.5891 63.498 12.5754C63.498 13.5697 63.9362 14.142 64.7151 14.142C65.4911 14.142 65.9332 13.5657 65.9332 12.5754H65.9332ZM67.7984 13.5657C67.7984 12.7466 68.4069 12.2744 69.4872 12.2073L70.7171 12.1363V11.7435C70.7171 11.2629 70.4001 10.9915 69.7876 10.9915C69.2873 10.9915 68.9407 11.1756 68.8412 11.4973H67.9736C68.0652 10.7157 68.7989 10.2144 69.8289 10.2144C70.9673 10.2144 71.6093 10.7823 71.6093 11.7435V14.8525H70.7467V14.2131H70.6758C70.3828 14.6801 69.8618 14.953 69.3119 14.9275C68.9265 14.9677 68.542 14.8426 68.2536 14.5831C67.9653 14.3237 67.7999 13.9541 67.7984 13.5657ZM70.7171 13.1769V12.7965L69.6083 12.8675C68.983 12.9094 68.6994 13.1226 68.6994 13.5238C68.6994 13.9333 69.0539 14.1716 69.5414 14.1716C69.83 14.2009 70.1181 14.1115 70.3397 13.924C70.5613 13.7365 70.6975 13.4669 70.7171 13.1769ZM72.7871 12.5754C72.7871 11.1376 73.5247 10.2267 74.6719 10.2267C75.2512 10.2 75.7938 10.511 76.0643 11.025H76.1313V8.52588H77.0274V14.8525H76.1687V14.1336H76.0978C75.8068 14.6433 75.2575 14.9491 74.6719 14.9275C73.5168 14.9276 72.7871 14.0167 72.7871 12.5754ZM73.7128 12.5754C73.7128 13.5405 74.1668 14.1213 74.926 14.1213C75.6813 14.1213 76.1481 13.5322 76.1481 12.5794C76.1481 11.631 75.6764 11.0335 74.926 11.0335C74.1716 11.0335 73.7128 11.6182 73.7128 12.5754H73.7128ZM80.735 12.5754C80.6572 11.7597 81.0475 10.9704 81.7423 10.5384C82.437 10.1063 83.3161 10.1063 84.0109 10.5384C84.7056 10.9704 85.096 11.7597 85.0182 12.5754C85.0974 13.3919 84.7074 14.1828 84.0121 14.6157C83.3167 15.0486 82.4364 15.0486 81.7411 14.6157C81.0457 14.1828 80.6558 13.3919 80.735 12.5754ZM84.0959 12.5754C84.0959 11.5891 83.6538 11.0122 82.8778 11.0122C82.0989 11.0122 81.6607 11.5891 81.6607 12.5754C81.6607 13.5697 82.0989 14.142 82.8778 14.142C83.6537 14.142 84.0959 13.5657 84.0959 12.5754H84.0959ZM86.2205 10.3022H87.0832V11.0251H87.1501C87.383 10.4928 87.9272 10.1673 88.5052 10.2144C88.9527 10.1806 89.3912 10.3527 89.697 10.6819C90.0027 11.0112 90.1425 11.4619 90.0768 11.9068V14.8525H89.1807V12.1323C89.1807 11.4011 88.8636 11.0374 88.2009 11.0374C87.8973 11.0232 87.6027 11.1426 87.3943 11.3643C87.1859 11.5859 87.0845 11.8877 87.1166 12.1905V14.8525H86.2205V10.3022ZM95.1404 9.16931V10.3229H96.1242V11.0793H95.1404V13.4192C95.1404 13.8958 95.3364 14.1045 95.7824 14.1045C95.8967 14.1041 96.0107 14.0972 96.1242 14.0838V14.8318C95.9632 14.8607 95.8002 14.876 95.6367 14.8777C94.6401 14.8777 94.2433 14.5264 94.2433 13.6491V11.0793H93.5225V10.3229H94.2433V9.16931H95.1404ZM97.3482 8.52588H98.2364V11.0334H98.3073C98.5514 10.4966 99.1051 10.1706 99.6918 10.2183C100.137 10.1941 100.569 10.3699 100.872 10.6979C101.174 11.026 101.315 11.4721 101.256 11.9147V14.8525H100.359V12.1362C100.359 11.4094 100.021 11.0413 99.3876 11.0413C99.0759 11.0157 98.7687 11.1293 98.5483 11.3517C98.3279 11.5741 98.2166 11.8827 98.2444 12.1949V14.8525H97.3482L97.3482 8.52588ZM106.481 13.6239C106.229 14.4822 105.401 15.0368 104.513 14.9404C103.908 14.9564 103.326 14.7049 102.922 14.2526C102.518 13.8003 102.333 13.193 102.416 12.5917C102.335 11.9887 102.52 11.3804 102.921 10.9243C103.323 10.4682 103.902 10.2092 104.509 10.2144C105.773 10.2144 106.535 11.0794 106.535 12.5083V12.8216H103.329V12.872C103.3 13.2096 103.415 13.5436 103.645 13.7918C103.876 14.04 104.2 14.1793 104.538 14.1755C104.976 14.2283 105.403 14.0103 105.618 13.6239L106.481 13.6239ZM103.329 12.1575H105.622C105.645 11.8487 105.537 11.5445 105.324 11.32C105.111 11.0956 104.813 10.9716 104.504 10.9787C104.191 10.9747 103.89 11.0977 103.668 11.3196C103.447 11.5416 103.324 11.8437 103.329 12.1575H103.329Z"/>
</mask>
<path d="M62.5723 12.5754C62.4944 11.7598 62.8847 10.9705 63.5794 10.5384C64.2741 10.1064 65.1532 10.1064 65.8479 10.5384C66.5426 10.9705 66.9328 11.7598 66.855 12.5754C66.9343 13.3919 66.5444 14.1828 65.8491 14.6157C65.1538 15.0486 64.2735 15.0486 63.5782 14.6157C62.8829 14.1828 62.493 13.3919 62.5723 12.5754ZM65.9332 12.5754C65.9332 11.5891 65.4911 11.0122 64.7151 11.0122C63.9362 11.0122 63.498 11.5891 63.498 12.5754C63.498 13.5697 63.9362 14.142 64.7151 14.142C65.4911 14.142 65.9332 13.5657 65.9332 12.5754H65.9332ZM67.7984 13.5657C67.7984 12.7466 68.4069 12.2744 69.4872 12.2073L70.7171 12.1363V11.7435C70.7171 11.2629 70.4001 10.9915 69.7876 10.9915C69.2873 10.9915 68.9407 11.1756 68.8412 11.4973H67.9736C68.0652 10.7157 68.7989 10.2144 69.8289 10.2144C70.9673 10.2144 71.6093 10.7823 71.6093 11.7435V14.8525H70.7467V14.2131H70.6758C70.3828 14.6801 69.8618 14.953 69.3119 14.9275C68.9265 14.9677 68.542 14.8426 68.2536 14.5831C67.9653 14.3237 67.7999 13.9541 67.7984 13.5657ZM70.7171 13.1769V12.7965L69.6083 12.8675C68.983 12.9094 68.6994 13.1226 68.6994 13.5238C68.6994 13.9333 69.0539 14.1716 69.5414 14.1716C69.83 14.2009 70.1181 14.1115 70.3397 13.924C70.5613 13.7365 70.6975 13.4669 70.7171 13.1769ZM72.7871 12.5754C72.7871 11.1376 73.5247 10.2267 74.6719 10.2267C75.2512 10.2 75.7938 10.511 76.0643 11.025H76.1313V8.52588H77.0274V14.8525H76.1687V14.1336H76.0978C75.8068 14.6433 75.2575 14.9491 74.6719 14.9275C73.5168 14.9276 72.7871 14.0167 72.7871 12.5754ZM73.7128 12.5754C73.7128 13.5405 74.1668 14.1213 74.926 14.1213C75.6813 14.1213 76.1481 13.5322 76.1481 12.5794C76.1481 11.631 75.6764 11.0335 74.926 11.0335C74.1716 11.0335 73.7128 11.6182 73.7128 12.5754H73.7128ZM80.735 12.5754C80.6572 11.7597 81.0475 10.9704 81.7423 10.5384C82.437 10.1063 83.3161 10.1063 84.0109 10.5384C84.7056 10.9704 85.096 11.7597 85.0182 12.5754C85.0974 13.3919 84.7074 14.1828 84.0121 14.6157C83.3167 15.0486 82.4364 15.0486 81.7411 14.6157C81.0457 14.1828 80.6558 13.3919 80.735 12.5754ZM84.0959 12.5754C84.0959 11.5891 83.6538 11.0122 82.8778 11.0122C82.0989 11.0122 81.6607 11.5891 81.6607 12.5754C81.6607 13.5697 82.0989 14.142 82.8778 14.142C83.6537 14.142 84.0959 13.5657 84.0959 12.5754H84.0959ZM86.2205 10.3022H87.0832V11.0251H87.1501C87.383 10.4928 87.9272 10.1673 88.5052 10.2144C88.9527 10.1806 89.3912 10.3527 89.697 10.6819C90.0027 11.0112 90.1425 11.4619 90.0768 11.9068V14.8525H89.1807V12.1323C89.1807 11.4011 88.8636 11.0374 88.2009 11.0374C87.8973 11.0232 87.6027 11.1426 87.3943 11.3643C87.1859 11.5859 87.0845 11.8877 87.1166 12.1905V14.8525H86.2205V10.3022ZM95.1404 9.16931V10.3229H96.1242V11.0793H95.1404V13.4192C95.1404 13.8958 95.3364 14.1045 95.7824 14.1045C95.8967 14.1041 96.0107 14.0972 96.1242 14.0838V14.8318C95.9632 14.8607 95.8002 14.876 95.6367 14.8777C94.6401 14.8777 94.2433 14.5264 94.2433 13.6491V11.0793H93.5225V10.3229H94.2433V9.16931H95.1404ZM97.3482 8.52588H98.2364V11.0334H98.3073C98.5514 10.4966 99.1051 10.1706 99.6918 10.2183C100.137 10.1941 100.569 10.3699 100.872 10.6979C101.174 11.026 101.315 11.4721 101.256 11.9147V14.8525H100.359V12.1362C100.359 11.4094 100.021 11.0413 99.3876 11.0413C99.0759 11.0157 98.7687 11.1293 98.5483 11.3517C98.3279 11.5741 98.2166 11.8827 98.2444 12.1949V14.8525H97.3482L97.3482 8.52588ZM106.481 13.6239C106.229 14.4822 105.401 15.0368 104.513 14.9404C103.908 14.9564 103.326 14.7049 102.922 14.2526C102.518 13.8003 102.333 13.193 102.416 12.5917C102.335 11.9887 102.52 11.3804 102.921 10.9243C103.323 10.4682 103.902 10.2092 104.509 10.2144C105.773 10.2144 106.535 11.0794 106.535 12.5083V12.8216H103.329V12.872C103.3 13.2096 103.415 13.5436 103.645 13.7918C103.876 14.04 104.2 14.1793 104.538 14.1755C104.976 14.2283 105.403 14.0103 105.618 13.6239L106.481 13.6239ZM103.329 12.1575H105.622C105.645 11.8487 105.537 11.5445 105.324 11.32C105.111 11.0956 104.813 10.9716 104.504 10.9787C104.191 10.9747 103.89 11.0977 103.668 11.3196C103.447 11.5416 103.324 11.8437 103.329 12.1575H103.329Z" fill="white" stroke="white" stroke-width="2.78261" mask="url(#path-13-inside-6)"/>
</g>
<defs>
<clipPath id="clip0">
<rect width="160" height="40.4211" fill="white"/>
</clipPath>
</defs>
</svg>
